<svg width="24" height="24" xmlns="http://www.w3.org/2000/svg" fill="white">
 <g>
  <title>Layer 1</title>
  <g id="svg_1">
   <svg width="24" height="24" viewBox="0 0 24 24" class="Hdh4hc cIGbvc" id="svg_14" xmlns="http://www.w3.org/2000/svg">
    <path fill-rule="evenodd" clip-rule="evenodd" d="m3,4c0,-0.55228 0.44772,-1 1,-1l6,0c0.5523,0 1,0.44772 1,1l0,6c0,0.5523 -0.4477,1 -1,1l-6,0c-0.55228,0 -1,-0.4477 -1,-1l0,-6zm2,5l4,0l0,-4l-4,0l0,4z" id="svg_18"/>
    <path fill-rule="evenodd" clip-rule="evenodd" d="m3,14c0,-0.5523 0.44772,-1 1,-1l6,0c0.5523,0 1,0.4477 1,1l0,6c0,0.5523 -0.4477,1 -1,1l-6,0c-0.55228,0 -1,-0.4477 -1,-1l0,-6zm2,5l4,0l0,-4l-4,0l0,4z" id="svg_17"/>
    <path fill-rule="evenodd" clip-rule="evenodd" d="m13,4c0,-0.55228 0.4477,-1 1,-1l6,0c0.5523,0 1,0.44772 1,1l0,6c0,0.5523 -0.4477,1 -1,1l-6,0c-0.5523,0 -1,-0.4477 -1,-1l0,-6zm2,5l4,0l0,-4l-4,0l0,4z" id="svg_16"/>
    <path fill-rule="evenodd" clip-rule="evenodd" d="m14,13c-0.5523,0 -1,0.4477 -1,1l0,6c0,0.5523 0.4477,1 1,1l6,0c0.5523,0 1,-0.4477 1,-1l0,-6c0,-0.5523 -0.4477,-1 -1,-1l-6,0z" id="svg_15"/>
   </svg>
  </g>
  <g id="svg_2">
   <svg width="24" height="24" viewBox="0 0 24 24" class="Hdh4hc cIGbvc" id="svg_19" xmlns="http://www.w3.org/2000/svg">
    <path fill-rule="evenodd" clip-rule="evenodd" d="m11,7.74967l0,-3.41634c0,-0.73638 -0.597,-1.33333 -1.33333,-1.33333l-3.41634,0l2,2l0.74967,0l0,0.74967l2,2zm-5.55534,-2.74967l-0.44466,0l0,4l4,0l0,-0.44466l1.8054,1.80536c-0.2342,0.3834 -0.6566,0.6393 -1.13873,0.6393l-5.33334,0c-0.73638,0 -1.33333,-0.597 -1.33333,-1.33333l0,-5.33334c0,-0.48214 0.25591,-0.90451 0.63931,-1.13869l1.80535,1.80536z" id="svg_24"/>
    <path fill-rule="evenodd" clip-rule="evenodd" d="m3.00098,14c0,-0.5523 0.44771,-1 1,-1l6.00002,0c0.5523,0 1,0.4477 1,1l0,6c0,0.5523 -0.4477,1 -1,1l-6.00002,0c-0.55229,0 -1,-0.4477 -1,-1l0,-6zm2,5l4,0l0,-4l-4,0l0,4z" id="svg_23"/>
    <path fill-rule="evenodd" clip-rule="evenodd" d="m13.001,4c0,-0.55228 0.4477,-1 1,-1l6,0c0.5523,0 1,0.44772 1,1l0,6c0,0.5523 -0.4477,1 -1,1l-6,0c-0.5523,0 -1,-0.4477 -1,-1l0,-6zm2,5l4,0l0,-4l-4,0l0,4z" id="svg_22"/>
    <path fill-rule="evenodd" clip-rule="evenodd" d="m21.001,17.751l0,-3.751c0,-0.5523 -0.4477,-1 -1,-1l-3.751,0l4.751,4.751zm-7.45,-4.6443c-0.3263,0.1647 -0.55,0.5029 -0.55,0.8933l0,6c0,0.5523 0.4477,1 1,1l6,0c0.3904,0 0.7286,-0.2238 0.8933,-0.5501l-7.3433,-7.3432z" id="svg_21"/>
    <rect x="20.7998" y="23.2129" width="28" height="2" transform="rotate(-135 20.7998 23.2129)" id="svg_20"/>
   </svg>
  </g>
 </g>

</svg>